<svg viewBox="0 0 64 64" xmlns="http://www.w3.org/2000/svg"><path d="M1 26h62v35H1z" fill="none" stroke="#2e2e2e" stroke-linejoin="round" stroke-width="2px" class="stroke-4d4d4d"></path><path d="M1 36h62M3.615 36.06l7.939-10.113M16.11 36.06l7.939-10.113M28.605 36.06l7.939-10.113M41.1 36.06l7.939-10.113M52.595 36.06l7.939-10.113M5 26V12H1v14h3" fill="none" stroke="#2e2e2e" stroke-miterlimit="10" stroke-width="2px" class="stroke-4d4d4d"></path><path d="m6 12 54.863-7.353 2.196 14.121-57.78 6.794M13.61 11.206l6.986 12.48M25.658 9.864l7.557 12.163M37.857 8.145l7.299 12.796M47.686 6.819l7.709 12.82" fill="none" stroke="#2e2e2e" stroke-linecap="round" stroke-linejoin="round" stroke-width="2px" class="stroke-4d4d4d"></path><path d="M39 47.588h20V57H39z" fill="none" stroke="#2e2e2e" stroke-linejoin="round" stroke-width="2px" class="stroke-4d4d4d"></path></svg>